<?xml version="1.0" encoding="utf-8"?>
<!-- Generator: Adobe Illustrator 24.0.0, SVG Export Plug-In . SVG Version: 6.00 Build 0)  -->
<svg version="1.1" id="Layer_1" xmlns="http://www.w3.org/2000/svg" xmlns:xlink="http://www.w3.org/1999/xlink" x="0px" y="0px"
	 viewBox="0 0 25.1 25.1" style="enable-background:new 0 0 25.1 25.1;" xml:space="preserve">
<style type="text/css">
	.st0{fill-rule:evenodd;clip-rule:evenodd;fill:#3F77F2;}
</style>
<g>
	<g>
		<path class="st0" d="M8.8,2.3v3.4H5.4L8.8,2.3L8.8,2.3L8.8,2.3z M20.2,1.8l0,21.5H4.9V7.2h5.4V1.8H20.2L20.2,1.8L20.2,1.8z
			 M8.7,0.4L3.4,5.7v19.1h18.2V0.4H8.7L8.7,0.4L8.7,0.4z"/>
	</g>
	<polygon class="st0" points="10.2,8.8 8.6,10.5 7.8,9.7 6.6,10.9 8.7,12.9 11.5,9.9 10.2,8.8 10.2,8.8 	"/>
	<rect x="12.3" y="10.4" class="st0" width="5.8" height="1.7"/>
	<g>
		<rect x="12.3" y="14.9" class="st0" width="5.8" height="1.7"/>
		<rect x="7.7" y="14.9" class="st0" width="1.7" height="1.7"/>
	</g>
	<g>
		<rect x="12.3" y="18.7" class="st0" width="5.8" height="1.7"/>
		<rect x="7.7" y="18.7" class="st0" width="1.7" height="1.7"/>
	</g>
</g>
</svg>
