<svg xmlns="http://www.w3.org/2000/svg" width="25.142" height="25.08" viewBox="0 0 25.142 25.08">
  <path id="account" d="M8.452,23.625a17.439,17.439,0,0,1,3.95-2.132,11.929,11.929,0,0,1,8.339,0,17.439,17.439,0,0,1,3.95,2.132,10.08,10.08,0,0,0,1.944-3.448A11.617,11.617,0,0,0,27.2,16.54a10.162,10.162,0,0,0-3.072-7.587A10.506,10.506,0,0,0,16.54,5.881,10.162,10.162,0,0,0,8.953,8.953,10.506,10.506,0,0,0,5.881,16.54a11.618,11.618,0,0,0,.564,3.637A12.292,12.292,0,0,0,8.452,23.625ZM16.54,17.48a4.261,4.261,0,0,1-3.072-1.254,4.158,4.158,0,0,1-1.254-3.072A4.282,4.282,0,0,1,16.54,8.828a4.261,4.261,0,0,1,3.072,1.254,4.158,4.158,0,0,1,1.254,3.072,4.158,4.158,0,0,1-1.254,3.072A4.261,4.261,0,0,1,16.54,17.48Zm0,11.6a11.986,11.986,0,0,1-4.891-1,12.559,12.559,0,0,1-4.013-2.7,11.906,11.906,0,0,1-2.7-4.013A12.732,12.732,0,0,1,4,16.54a11.576,11.576,0,0,1,1-4.891A14.551,14.551,0,0,1,7.7,7.637a11.057,11.057,0,0,1,4.013-2.7A12.732,12.732,0,0,1,16.54,4,11.576,11.576,0,0,1,21.43,5a14.551,14.551,0,0,1,4.013,2.7,11.057,11.057,0,0,1,2.7,4.013,11.576,11.576,0,0,1,1,4.891,11.986,11.986,0,0,1-1,4.891,12.559,12.559,0,0,1-2.7,4.013,11.905,11.905,0,0,1-4.013,2.7A13.828,13.828,0,0,1,16.54,29.08Zm0-1.881a12.649,12.649,0,0,0,3.386-.5,9.772,9.772,0,0,0,3.26-1.756,15,15,0,0,0-3.26-1.756,10.751,10.751,0,0,0-3.386-.627,9.236,9.236,0,0,0-3.386.627,12.723,12.723,0,0,0-3.26,1.756,9.772,9.772,0,0,0,3.26,1.756A12.649,12.649,0,0,0,16.54,27.2Zm0-11.6a2.463,2.463,0,0,0,1.756-.69,2.359,2.359,0,0,0,.69-1.756A2.463,2.463,0,0,0,18.3,11.4a2.359,2.359,0,0,0-1.756-.69,2.463,2.463,0,0,0-1.756.69,2.359,2.359,0,0,0-.69,1.756A2.36,2.36,0,0,0,16.54,15.6Z" transform="translate(-4 -4)" fill="#3f77f2"/>
</svg>
