<?xml version="1.0" encoding="utf-8"?>
<!-- Generator: Adobe Illustrator 24.0.0, SVG Export Plug-In . SVG Version: 6.00 Build 0)  -->
<svg version="1.1" id="Layer_1" xmlns="http://www.w3.org/2000/svg" xmlns:xlink="http://www.w3.org/1999/xlink" x="0px" y="0px"
	 viewBox="0 0 48 48" style="enable-background:new 0 0 48 48;" xml:space="preserve">
<style type="text/css">
	.st0{fill:#088CCD;stroke:#088CCD;stroke-miterlimit:10;}
</style>
<path class="st0" d="M18,6V3h12v3H18z M22.5,28.4h3V16.9h-3V28.4z M24,45c-2.5,0-4.8-0.5-7-1.4s-4.1-2.2-5.7-3.9s-2.9-3.5-3.9-5.7
	S6,29.4,6,27s0.5-4.8,1.4-7s2.2-4.1,3.9-5.7s3.5-2.9,5.7-3.9C19.2,9.4,21.5,9,24,9c2.2,0,4.3,0.4,6.3,1.1s3.7,1.8,5.2,3.1l2.6-2.6
	l2.1,2.1l-2.5,2.6c1.2,1.3,2.2,2.9,3.1,4.8c0.8,1.9,1.3,4.2,1.3,6.8c0,2.5-0.5,4.8-1.4,7s-2.2,4.1-3.9,5.7s-3.5,2.9-5.7,3.9
	S26.5,45,24,45z M24,42c4.2,0,7.7-1.5,10.6-4.4S39,31.1,39,27s-1.5-7.7-4.4-10.6S28.2,12,24,12s-7.7,1.5-10.6,4.4S9,22.8,9,27
	s1.5,7.7,4.4,10.6S19.8,42,24,42z"/>
</svg>
